<svg width="131" height="29" viewBox="0 0 131 29" fill="none" xmlns="http://www.w3.org/2000/svg">
    <path d="M20.5 3H9L15 12L20.5 3Z" fill="#FBC256"/>
    <path d="M10 10H1L14.5 29L33 0H25.5L14.5 17.5L10 10Z" fill="#FBC256"/>
    <path d="M20.5 3H9L15 12L20.5 3Z" fill="#4D7EA8"/>
    <path d="M104.706 5.34662C104.706 6.64154 103.648 7.69127 102.343 7.69127C101.038 7.69127 99.9807 6.64154 99.9807 5.34662C99.9807 4.0517 101.038 3.00196 102.343 3.00196C103.648 3.00196 104.706 4.0517 104.706 5.34662Z" fill="#060C3B"/>
    <path d="M100.318 14.8592V21.0223H102.377H104.436V14.8592V8.69611H102.377H100.318V14.8592Z" fill="#060C3B"/>
    <path d="M110.072 5.7884C109.181 6.06091 108.293 6.33008 108.098 6.38655L107.743 6.48918V7.59264V8.69611H106.832H105.921V10.6723V12.6485H106.822H107.724L107.763 15.0434C107.796 17.0821 107.822 17.5308 107.937 18.06C108.425 20.3195 110.021 21.2729 113.076 21.1302C113.577 21.1068 114.101 21.069 114.24 21.0462L114.493 21.0047V19.1779V17.351L113.599 17.3273C112.569 17.3 112.262 17.197 112.031 16.8019C111.904 16.5835 111.893 16.4329 111.873 14.6095L111.852 12.6515L113.155 12.6333L114.459 12.615L114.477 10.6556L114.495 8.69611H113.178H111.861V6.98786C111.861 5.66239 111.842 5.28108 111.776 5.28624C111.73 5.28986 110.963 5.51582 110.072 5.7884Z" fill="#060C3B"/>
    <path d="M115.475 8.94732C117.992 14.9204 120.304 20.587 120.274 20.7074C120.21 20.9594 119.836 21.4051 119.506 21.6219C119.08 21.9019 118.63 22.0275 117.885 22.0744L117.261 22.1138V24.0569V26L118.088 25.9561C118.542 25.932 119.158 25.8697 119.456 25.8177C121.23 25.5082 122.636 24.5976 123.629 23.1151C124.32 22.0827 124.444 21.753 128.503 10.1196L129 8.69611H126.719H124.439L123.509 12.1259C122.997 14.0123 122.557 15.6143 122.53 15.6859C122.483 15.8125 122.21 15.0693 120.513 10.1874L119.994 8.69778L117.682 8.69691L115.369 8.69611L115.475 8.94732Z" fill="#060C3B"/>
    <path d="M92.1184 8.46513C89.3411 8.98577 87.3282 10.9874 86.8509 13.7033C86.2565 17.0864 88.2766 20.2642 91.5769 21.1377C92.1809 21.2976 92.3691 21.3162 93.3657 21.3144C94.5906 21.3123 95.0307 21.2307 96.0186 20.8225C97.0271 20.4059 98.0499 19.5734 98.6846 18.6527L99.0019 18.1924L98.8482 18.0907C98.7637 18.0348 97.976 17.5761 97.0977 17.0714L95.5009 16.1539L95.2919 16.4257C94.6437 17.2692 93.4346 17.5918 92.389 17.2002C90.8062 16.6073 90.3689 14.2808 91.6085 13.0476C92.5801 12.0811 94.2628 12.1399 95.1906 13.173L95.515 13.5342L97.191 12.5776C98.1128 12.0514 98.8938 11.5979 98.9266 11.5697C99.0286 11.4822 98.6352 10.9083 98.0791 10.3334C96.8514 9.06428 95.4064 8.4465 93.5344 8.3905C92.9334 8.37248 92.4873 8.39599 92.1184 8.46513Z" fill="#060C3B"/>
    <path fill-rule="evenodd" clip-rule="evenodd" d="M77.7409 8.46961C76.1693 8.75111 74.7163 9.58835 73.7422 10.7739C73.2912 11.3226 72.694 12.5105 72.4965 13.2514C72.277 14.0751 72.2775 15.6465 72.4974 16.467C73.2448 19.2544 75.6365 21.1767 78.5547 21.3353C80.5678 21.4448 82.4298 20.7226 83.767 19.3135C86.6995 16.2234 85.8902 11.171 82.1412 9.1641C80.8256 8.45976 79.215 8.20561 77.7409 8.46961ZM81.4182 14.8592C81.4182 13.6802 80.7451 12.7193 79.7047 12.4126C79.2964 12.2923 78.5161 12.291 78.1326 12.41C77.4918 12.6089 76.8714 13.195 76.6182 13.8408C76.4059 14.3824 76.4065 15.3373 76.6194 15.8806C76.8169 16.3846 77.3335 16.9434 77.8206 17.1799C78.3038 17.4145 79.1192 17.4741 79.6694 17.3149C80.7475 17.003 81.4182 16.0611 81.4182 14.8592Z" fill="#060C3B"/>
    <path d="M66.4332 12.0111V21.0223H68.4922H70.5512L70.5341 12.0289L70.517 3.03544L68.4751 3.03718H66.4332V10.0287V11.1682V11.8003C66.4332 12.2489 66.4368 12.8592 66.4332 12.0111Z" fill="#060C3B"/>
    <path d="M28.174 3H16.171L20.5 21H24.093L28.174 3Z" fill="#FBC256"/>
    <path d="M58.9587 9.64953C58.4004 9.33469 57.7313 9.1123 57.0284 9.01259C56.8267 8.98319 56.5715 8.9348 56.2669 9.03141C56.123 9.0698 55.9709 9.1546 55.8406 9.26498C55.2854 9.94463 56.0541 10.5486 56.4535 10.7228C56.8319 10.8722 57.2233 10.8464 57.6849 10.6836C57.6886 10.7157 57.6913 10.7476 57.6913 10.7807C57.6913 12.4302 57.4538 13.9643 57.5386 14.5038C57.613 14.9958 57.7495 15.1099 58.2045 15.2555C58.4207 15.3183 58.5284 15.3589 58.7998 15.4153C58.7557 15.7999 58.7385 16.2827 58.8163 16.7802C58.9402 17.6326 59.1855 18.0335 59.4977 18.0865C60.7476 18.2696 61.0122 16.8943 61.0727 16.4534C61.1358 15.9577 61.1279 15.7551 61.0779 15.4428C61.0335 15.2281 60.9638 15.0568 60.7989 14.7804C60.645 14.5216 60.4161 14.3003 60.0739 14.228C59.3906 14.0344 58.3188 14.4204 57.5512 14.9383C57.5147 14.9683 57.4849 15.0128 57.4669 15.0575C57.4558 15.0889 57.4616 15.1206 57.4708 15.1517C57.4708 15.1517 57.4755 15.1535 57.4793 15.1552C57.4778 15.1313 57.4489 15.0578 57.4144 14.968C57.3567 14.8195 57.2761 14.5968 57.1983 14.4574C57.0884 14.2671 56.8698 14.1663 56.6889 14.1647C56.4361 14.1643 56.1965 14.3798 56.1996 14.8232C56.2018 15.1282 56.2775 15.4031 56.3593 15.507C56.3582 15.5281 56.3549 15.5498 56.3489 15.5711C56.343 15.5941 56.3256 15.6166 56.2894 15.661C56.0483 15.9488 55.8942 16.2756 55.8922 16.5298C55.8893 16.7637 56.0973 16.8037 56.5163 16.6597C56.6424 16.6001 56.8542 16.5863 57.2229 16.7532C57.5593 16.9097 57.6783 16.8386 57.8211 16.5455C58.3172 15.1652 59.5322 14.1676 59.2826 13.2691C59.0087 12.1545 57.7461 10.8939 56.7464 10.8293C56.5978 10.8176 56.4638 10.8911 56.2643 10.9918C55.8571 11.2494 55.0868 11.8675 54.7759 12.3352C54.6683 12.5044 54.8162 12.6722 55.2044 12.8212C56.2118 13.2791 58.4242 13.305 59.0755 13.2613C59.2858 13.2404 59.5233 13.0922 59.7461 12.7697C60.3576 11.5096 60.0541 10.4823 59.8222 9.73939C59.6494 9.20342 59.0814 8.9101 58.4949 8.95351C57.6879 9.01433 56.5896 9.45465 56.3071 9.8359C56.1859 9.96686 56.0429 9.98838 55.9463 9.98838C55.8289 9.98838 55.6852 9.99014 55.6978 10.1341C55.7507 10.6572 56.0696 11.0807 56.7404 11.1227C57.5934 11.1862 57.8353 10.6446 58.2405 10.0494C58.8173 9.17997 58.9449 8.34702 58.9587 9.64953Z" fill="#060C3B"/>
</svg>
